<svg width="632" height="72" viewBox="0 0 632 72" fill="none" xmlns="http://www.w3.org/2000/svg">
<path d="M91 17.1001H102L109.65 41.3501L117.35 17.1001H128.4L114.9 53.3001H104.4L91 17.1001Z" fill="black"/>
<path d="M125.25 38.9999C125.25 29.6499 130.3 24.0999 137.45 24.0999C141.05 24.0999 144.3 25.9499 145.5 28.7499V24.6999H155.25V53.2499H145.5V49.4499C144.3 52.1499 141 53.9499 137.45 53.9499C130.35 53.9499 125.25 48.2999 125.25 38.9999ZM145.85 38.9499C145.85 34.5499 143.5 32.0499 140.4 32.0499C137.3 32.0499 134.95 34.5499 134.95 38.9499C134.95 43.4499 137.3 45.9499 140.4 45.9499C143.5 45.9499 145.85 43.4499 145.85 38.9499Z" fill="black"/>
<path d="M158.495 38.9999C158.495 30.1499 164.75 24.1499 173.1 24.1499C181.3 24.1499 186.35 27.7999 187.4 35.1999L178.75 36.3499C178 33.5999 176.2 32.0999 173.65 32.0999C170.35 32.0999 168.2 34.7999 168.2 38.9999C168.2 43.1999 170.35 45.8999 173.65 45.8999C176.1 45.8999 178 44.2999 178.7 41.6499L187.4 42.7999C186.4 49.9999 181.15 53.8499 173.1 53.8499C164.75 53.8499 158.495 47.8499 158.495 38.9999Z" fill="black"/>
<path d="M188.945 38.9999C188.945 30.1499 195.195 24.1499 203.55 24.1499C211.75 24.1499 216.8 27.7999 217.85 35.1999L209.2 36.3499C208.45 33.5999 206.65 32.0999 204.1 32.0999C200.795 32.0999 198.65 34.7999 198.65 38.9999C198.65 43.1999 200.795 45.8999 204.1 45.8999C206.55 45.8999 208.45 44.2999 209.15 41.6499L217.85 42.7999C216.85 49.9999 211.6 53.8499 203.55 53.8499C195.195 53.8499 188.945 47.8499 188.945 38.9999Z" fill="black"/>
<path d="M220.245 16.75C220.245 13.65 222.495 12 225.645 12C228.545 12 231.095 13.65 231.095 16.75C231.095 19.85 228.545 21.45 225.645 21.45C222.495 21.45 220.245 19.85 220.245 16.75ZM220.745 24.7H230.445V53.3H220.745V24.7Z" fill="black"/>
<path d="M234.695 24.6999H244.395V28.6499C245.745 25.9499 248.895 24.1499 252.695 24.1499C260.15 24.1499 263.3 28.2999 263.3 37.2999V53.2999H253.6V38.2999C253.6 34.0999 252.15 32.2499 248.995 32.2499C245.645 32.2499 244.395 34.2999 244.395 38.4999V53.2999H234.695V24.6999Z" fill="black"/>
<path d="M266.145 38.9999C266.145 29.6499 271.195 24.0999 278.345 24.0999C281.945 24.0999 285.195 25.9499 286.4 28.7499V24.6999H296.15V53.2499H286.4V49.4499C285.195 52.1499 281.9 53.9499 278.345 53.9499C271.245 53.9499 266.145 48.2999 266.145 38.9999ZM286.745 38.9499C286.745 34.5499 284.395 32.0499 281.295 32.0499C278.195 32.0499 275.845 34.5499 275.845 38.9499C275.845 43.4499 278.195 45.9499 281.295 45.9499C284.395 45.9499 286.745 43.4499 286.745 38.9499Z" fill="black"/>
<path d="M302.095 41.9001V31.9501H298.245V24.7001H302.095V19.7001L311.895 17.6001V24.7001H319.045V31.9501H311.895V41.2001C311.895 44.8501 313.145 46.2501 316.245 46.2501C317.017 46.2255 317.786 46.1419 318.545 46.0001L319.795 53.2001C318.036 53.5686 316.243 53.7529 314.445 53.7501C306.245 53.7501 302.095 50.6001 302.095 41.9001Z" fill="black"/>
<path d="M319.995 38.9999C319.995 30.1999 326.045 24.1499 334.895 24.1499C344.645 24.1499 350.245 30.6999 349.195 41.0499H329.695C329.745 44.7499 331.945 46.9999 335.395 46.9999C337.845 46.9999 339.545 45.9999 340.195 44.0499L349.095 44.8999C347.295 50.7499 342.495 53.8499 335.095 53.8499C325.945 53.8499 319.995 47.9999 319.995 38.9999ZM340.395 35.4499C340.195 32.4499 338.145 30.4999 335.145 30.4999C332.245 30.4999 330.095 32.2999 329.845 35.4499H340.395Z" fill="black"/>
<path d="M369.645 26.0701H361.845V17.1001H387.545V26.0701H379.815V53.3201H369.665L369.645 26.0701Z" fill="black"/>
<path d="M390.145 15.3999H399.845V28.6499C400.895 26.3999 403.645 24.1499 408.145 24.1499C414.795 24.1499 418.745 27.2999 418.745 37.2999V53.2999H409.045V38.2999C409.045 33.7499 407.595 32.2499 404.445 32.2499C401.295 32.2499 399.845 33.9499 399.845 38.4999V53.2999H390.145V15.3999Z" fill="black"/>
<path d="M421.595 38.9999C421.595 30.1999 427.645 24.1499 436.495 24.1499C446.245 24.1499 451.845 30.6999 450.795 41.0499H431.315C431.365 44.7499 433.565 46.9999 437.015 46.9999C439.465 46.9999 441.165 45.9999 441.815 44.0499L450.715 44.8999C448.915 50.7499 444.115 53.8499 436.715 53.8499C427.545 53.8499 421.595 47.9999 421.595 38.9999ZM441.995 35.4499C441.795 32.4499 439.745 30.4999 436.745 30.4999C433.845 30.4999 431.695 32.2999 431.445 35.4499H441.995Z" fill="black"/>
<path d="M465.545 42.9502L475.245 42.1002C475.995 44.7502 477.945 46.1502 481.095 46.1502C483.895 46.1502 485.645 44.9502 485.595 43.0502C485.345 37.5502 466.495 40.8002 466.495 27.6002C466.495 20.8502 472.295 16.5002 480.295 16.5002C488.645 16.5002 494.345 19.9502 495.345 26.9002L485.995 27.8002C485.195 25.4502 483.445 24.3002 480.645 24.3002C478.095 24.3002 476.495 25.4002 476.495 27.2502C476.495 33.5502 495.845 29.3002 495.845 42.6002C495.845 49.3502 490.045 53.8002 481.145 53.8002C472.745 53.8002 466.745 50.0002 465.545 42.9502Z" fill="black"/>
<path d="M500.815 41.9001V31.9501H496.965V24.7001H500.815V19.7001L510.615 17.6001V24.7001H517.765V31.9501H510.615V41.2001C510.615 44.8501 511.865 46.2501 514.965 46.2501C515.737 46.2255 516.506 46.1419 517.265 46.0001L518.515 53.2001C516.755 53.5686 514.962 53.7529 513.165 53.7501C504.945 53.7501 500.815 50.6001 500.815 41.9001Z" fill="black"/>
<path d="M519.39 38.9999C519.39 29.6499 524.44 24.0999 531.595 24.0999C535.195 24.0999 538.445 25.9499 539.645 28.7499V24.6999H549.395V53.2499H539.645V49.4499C538.445 52.1499 535.145 53.9499 531.595 53.9499C524.495 53.9499 519.39 48.2999 519.39 38.9999ZM539.995 38.9499C539.995 34.5499 537.645 32.0499 534.545 32.0499C531.445 32.0499 529.095 34.5499 529.095 38.9499C529.095 43.4499 531.445 45.9499 534.545 45.9499C537.645 45.9499 539.995 43.4499 539.995 38.9499Z" fill="black"/>
<path d="M555.34 41.9001V31.9501H551.49V24.7001H555.34V19.7001L565.145 17.6001V24.7001H572.315V31.9501H565.165V41.2001C565.165 44.8501 566.415 46.2501 569.515 46.2501C570.287 46.2255 571.056 46.1419 571.815 46.0001L573.065 53.2001C571.304 53.5688 569.509 53.7532 567.71 53.7501C559.49 53.7501 555.34 50.6001 555.34 41.9001Z" fill="black"/>
<path d="M573.24 38.9999C573.24 30.1999 579.29 24.1499 588.14 24.1499C597.89 24.1499 603.495 30.6999 602.44 41.0499H582.94C582.99 44.7499 585.19 46.9999 588.64 46.9999C591.09 46.9999 592.79 45.9999 593.44 44.0499L602.34 44.8999C600.545 50.7499 595.74 53.8499 588.34 53.8499C579.19 53.8499 573.24 47.9999 573.24 38.9999ZM593.64 35.4499C593.44 32.4499 591.39 30.4999 588.39 30.4999C585.49 30.4999 583.34 32.2999 583.09 35.4499H593.64Z" fill="black"/>
<path d="M603.64 45.6L612.39 44.7C613.14 46.55 614.99 47.75 617.44 47.75C619.79 47.75 621.24 46.9 621.24 45.5C621.24 40.7 604.24 44 604.49 33.1C604.64 27.65 609.69 24.2 617.29 24.2C623.89 24.2 629.24 27.1 630.34 32.05L621.69 33.1C621.429 32.2419 620.888 31.4957 620.155 30.9795C619.421 30.4632 618.536 30.2065 617.64 30.25C615.39 30.25 614.04 31.1 614.04 32.55C614.04 37.3 631.04 33.25 631.04 44.2C631.04 50.15 625.735 53.8 617.435 53.8C609.59 53.8 604.69 50.4 603.64 45.6Z" fill="black"/>
<path d="M369.644 26.0696H361.844V17.0996H387.544V26.0696H379.814V53.3196H369.664L369.644 26.0696Z" fill="black"/>
<path d="M390.145 15.3994H399.845V28.6494C400.895 26.3994 403.645 24.1494 408.145 24.1494C414.795 24.1494 418.745 27.2994 418.745 37.2994V53.2994H409.045V38.2994C409.045 33.7494 407.595 32.2494 404.445 32.2494C401.295 32.2494 399.845 33.9494 399.845 38.4994V53.2994H390.145V15.3994Z" fill="black"/>
<path d="M421.594 38.9994C421.594 30.1994 427.644 24.1494 436.494 24.1494C446.244 24.1494 451.844 30.6994 450.794 41.0494H431.314C431.364 44.7494 433.564 46.9994 437.014 46.9994C439.464 46.9994 441.164 45.9994 441.814 44.0494L450.714 44.8994C448.914 50.7494 444.114 53.8494 436.714 53.8494C427.544 53.8494 421.594 47.9994 421.594 38.9994ZM441.994 35.4494C441.794 32.4494 439.744 30.4994 436.744 30.4994C433.844 30.4994 431.694 32.2994 431.444 35.4494H441.994Z" fill="black"/>
<path d="M36 72C51.78 72 60.54 72 66.27 66.27C72 60.54 72 51.78 72 36C72 20.22 72 11.46 66.27 5.73C60.54 0 51.78 0 36 0C20.22 0 11.46 0 5.73 5.73C0 11.46 0 20.23 0 36C0 51.77 0 60.54 5.73 66.27C11.46 72 20.23 72 36 72Z" fill="#00960F"/>
<path d="M27.5819 14.8202C33.9219 14.8202 40.0219 13.6502 44.7819 11.5202C45.5419 11.1802 45.8719 10.2902 45.5419 9.54016C45.2019 8.78016 44.3219 8.45016 43.5619 8.78016C39.1819 10.7402 33.5019 11.8202 27.5819 11.8202C26.7519 11.8202 26.0819 12.4902 26.0819 13.3202C26.0819 14.1502 26.7519 14.8202 27.5819 14.8202Z" fill="white"/>
<path d="M40.6819 51.5101C39.9419 51.1401 39.0419 51.4401 38.6719 52.1801L35.8819 57.7701L34.3219 54.6501C33.9519 53.9101 33.0519 53.6101 32.3119 53.9801C31.5719 54.3501 31.2719 55.2501 31.6419 55.9901L34.5419 61.8001C34.5419 61.8101 34.5519 61.8201 34.5619 61.8201C34.6219 61.9301 34.6919 62.0301 34.7719 62.1301C34.7919 62.1501 34.8119 62.1701 34.8319 62.1901C34.9019 62.2601 34.9719 62.3201 35.0619 62.3701C35.0919 62.3901 35.1219 62.4101 35.1519 62.4301C35.1719 62.4401 35.1919 62.4601 35.2119 62.4701C35.2719 62.5001 35.3319 62.5101 35.3919 62.5301C35.4319 62.5401 35.4719 62.5601 35.5119 62.5701C35.6319 62.6001 35.7619 62.6201 35.8819 62.6201C36.0019 62.6201 36.1319 62.6001 36.2519 62.5701C36.2919 62.5601 36.3319 62.5401 36.3719 62.5301C36.4319 62.5101 36.4919 62.4901 36.5519 62.4701C36.5719 62.4601 36.5919 62.4401 36.6119 62.4301C36.6419 62.4101 36.6719 62.3901 36.7019 62.3701C36.7819 62.3101 36.8619 62.2501 36.9319 62.1901C36.9519 62.1701 36.9719 62.1501 36.9919 62.1301C37.0719 62.0401 37.1519 61.9301 37.2019 61.8201C37.2019 61.8101 37.2119 61.8001 37.2219 61.8001L41.3619 53.5301C41.7219 52.7801 41.4219 51.8801 40.6819 51.5101Z" fill="white"/>
<path d="M45.6719 38.5201V24.0101V16.7801C45.6719 16.2701 45.4119 15.8001 44.9919 15.5201C44.5619 15.2401 44.0319 15.2001 43.5619 15.4101C39.1819 17.3701 33.5019 18.4501 27.5819 18.4501C26.7519 18.4501 26.0819 19.1201 26.0819 19.9501C26.0819 20.7801 26.7519 21.4501 27.5819 21.4501C33.0119 21.4501 38.2819 20.5901 42.6719 19.0001V23.0401C39.5819 24.2901 35.9119 25.1501 31.9719 25.5101C31.1519 25.5901 30.5419 26.3201 30.6119 27.1401C30.6819 27.9201 31.3419 28.5001 32.1019 28.5001C32.1519 28.5001 32.1919 28.5001 32.2419 28.4901C36.0119 28.1401 39.5619 27.3701 42.6719 26.2401V30.2801C40.6919 31.0801 38.5019 31.7301 36.1019 32.1801C35.2919 32.3301 34.7519 33.1201 34.9019 33.9301C35.0419 34.6501 35.6719 35.1501 36.3719 35.1501C36.4619 35.1501 36.5619 35.1401 36.6519 35.1201C38.8019 34.7101 40.8119 34.1601 42.6619 33.4901V37.5201C41.8019 37.8701 40.9119 38.2001 39.9619 38.4801C39.1719 38.7201 38.7219 39.5601 38.9619 40.3501C39.1619 41.0001 39.7519 41.4201 40.4019 41.4201C40.5419 41.4201 40.6919 41.4001 40.8319 41.3601C41.4619 41.1701 42.0719 40.9601 42.6619 40.7501V44.8001C38.4219 46.5201 33.1119 47.4601 27.5719 47.4601C26.7419 47.4601 26.0719 48.1301 26.0719 48.9601C26.0719 49.7901 26.7419 50.4601 27.5719 50.4601C33.9119 50.4601 40.0219 49.2901 44.7719 47.1601C45.3119 46.9201 45.6619 46.3801 45.6619 45.7901V38.5201C45.6719 38.5201 45.6719 38.5201 45.6719 38.5201Z" fill="white"/>
</svg>
